<?xml version="1.0" standalone="no"?><!DOCTYPE svg PUBLIC "-//W3C//DTD SVG 1.1//EN" "http://www.w3.org/Graphics/SVG/1.1/DTD/svg11.dtd"><svg t="1574071704404" class="icon" viewBox="0 0 1024 1024" version="1.1" xmlns="http://www.w3.org/2000/svg" p-id="2503" xmlns:xlink="http://www.w3.org/1999/xlink" width="200" height="200"><defs><style type="text/css"></style></defs><path d="M278.072889 488.106667L670.037333 93.297778a37.091556 37.091556 0 0 1 22.755556-7.964445c7.964444 0 15.473778 2.616889 22.528 7.964445l53.475555 53.475555c5.233778 7.054222 7.964444 15.018667 7.964445 23.893334 0 8.874667-2.730667 15.928889-7.964445 21.390222L451.242667 512l317.44 320.056889c5.233778 5.233778 7.964444 12.401778 7.964444 21.276444a39.025778 39.025778 0 0 1-7.964444 23.893334l-53.475556 50.744889a31.857778 31.857778 0 0 1-22.641778 10.695111 37.091556 37.091556 0 0 1-22.641777-7.964445L278.072889 533.390222a28.785778 28.785778 0 0 1-7.964445-21.390222c0-8.874667 2.616889-16.839111 7.964445-23.893333z" p-id="2504"></path></svg>