<?xml version="1.0" encoding="UTF-8"?>
<svg width="284px" height="50px" viewBox="0 0 284 50" version="1.1" xmlns="http://www.w3.org/2000/svg" xmlns:xlink="http://www.w3.org/1999/xlink">
    <!-- Generator: Sketch 59.1 (86144) - https://sketch.com -->
    <title>logo</title>
    <desc>Created with Sketch.</desc>
    <defs>
        <linearGradient x1="1.2985545%" y1="53.2780508%" x2="95.8848859%" y2="48.119253%" id="linearGradient-1">
            <stop stop-color="#5BC9F4" offset="0%"></stop>
            <stop stop-color="#59B4F0" offset="10%"></stop>
            <stop stop-color="#568CE8" offset="33%"></stop>
            <stop stop-color="#5470E2" offset="53%"></stop>
            <stop stop-color="#525EDE" offset="71%"></stop>
            <stop stop-color="#5258DD" offset="84%"></stop>
            <stop stop-color="#5258DD" offset="99%"></stop>
        </linearGradient>
        <linearGradient x1="7.32838795%" y1="69.0149506%" x2="94.096761%" y2="29.8892588%" id="linearGradient-2">
            <stop stop-color="#5BC9F4" offset="0%"></stop>
            <stop stop-color="#59B4F0" offset="10%"></stop>
            <stop stop-color="#568CE8" offset="33%"></stop>
            <stop stop-color="#5470E2" offset="53%"></stop>
            <stop stop-color="#525EDE" offset="71%"></stop>
            <stop stop-color="#5258DD" offset="84%"></stop>
            <stop stop-color="#5258DD" offset="99%"></stop>
        </linearGradient>
    </defs>
    <g id="页面-1" stroke="none" stroke-width="1" fill="none" fill-rule="evenodd">
        <g id="ICON" transform="translate(-28.000000, -514.000000)" fill-rule="nonzero">
            <g id="logo" transform="translate(28.000000, 514.000000)">
                <path d="M88.313578,47.4918349 L88.313578,47.4918349 C83.7402129,50.8721161 77.292581,49.9054087 73.9116514,45.3325229 L66.003945,34.6369266 C64.8303446,33.0499345 62.9735465,32.1136936 60.9997477,32.1136936 C59.0259489,32.1136936 57.1691508,33.0499345 55.9955505,34.6369266 L48.0845872,45.3325229 C44.7036576,49.9054087 38.2560256,50.8721161 33.6826606,47.4918349 L33.6826606,47.4918349 C31.4862346,45.8676984 30.0250809,43.4374437 29.6207276,40.7358507 C29.2163743,38.0342577 29.9019545,35.2826967 31.5266055,33.0866514 L52.3348165,4.94720183 C54.2054223,2.05454678 57.3973522,0.287498307 60.841789,0.237752294 L61.1674771,0.237752294 C64.6130743,0.286415926 67.8064632,2.05359553 69.6777064,4.94720183 L90.4859174,33.0866514 C93.8637269,37.6644568 92.8911606,44.1137234 88.313578,47.4918349 L88.313578,47.4918349 Z M26.2569725,15.6330275 C30.0431405,18.4116375 35.3649298,17.5949496 38.1436747,13.8088806 C40.9224196,10.0228116 40.1059215,4.7009932 36.3199515,1.92211334 C32.5339816,-0.85676651 27.2121341,-0.0404580307 24.4331193,3.74541284 C23.0976087,5.56332698 22.5394349,7.83752708 22.8815195,10.0671859 C23.2236042,12.2968447 24.4378925,14.2991053 26.2569725,15.6330275 Z M23.1922477,18.4567431 C23.1922477,18.4567431 15.9880275,11.5488991 9.74784404,18.5316514 C3.50766055,25.5144037 -3.54348624,43.283945 2.54362385,47.9412844 C8.63073394,52.5986239 24.1204587,40.141055 28.5661009,32.142156 C33.0117431,24.1432569 25.1528899,19.7790367 23.1922477,18.4404587 L23.1922477,18.4567431 Z" id="形状" fill="url(#linearGradient-1)"></path>
                <path d="M176.812798,24.0390367 C175.241623,23.2490374 173.578881,22.6561386 171.862339,22.2738073 C170.162248,21.8612691 168.828012,21.5116972 167.859633,21.2250917 C167.028967,21.0053477 166.244599,20.6379852 165.543991,20.1405505 C164.999617,19.7551939 164.679391,19.1269164 164.687431,18.46 C164.687431,17.7109174 165.075,17.0888532 165.856651,16.5872936 C166.740104,16.0576172 167.758501,15.7962285 168.787844,15.8349541 C169.72851,15.7895145 170.665042,15.9869152 171.507339,16.4081651 C172.183333,16.7959599 172.774713,17.3153551 173.246514,17.9356422 C173.721878,18.5619827 174.261076,19.1372006 174.855413,19.6520183 C175.338554,20.0386268 175.943518,20.2406664 176.562018,20.2219725 C177.339021,20.2723667 178.104839,20.0163145 178.695275,19.5087156 C179.196143,19.0314623 179.469798,18.3633167 179.447615,17.6718349 C179.425305,16.9185763 179.180527,16.1887756 178.744128,15.5744037 C178.201698,14.7889812 177.503226,14.1237702 176.692294,13.6202752 C175.654696,12.9746813 174.519751,12.500688 173.331193,12.2165596 C171.840095,11.8466246 170.307736,11.6693088 168.77156,11.688945 C166.886928,11.6389235 165.013447,11.9931859 163.277202,12.7278899 C161.890069,13.3112273 160.695706,14.2741676 159.831422,15.5060092 C159.074384,16.5904007 158.666461,17.8800739 158.662202,19.2025688 C158.621088,20.5462557 159.070248,21.8590049 159.925872,22.8958716 C160.845746,23.9553899 162.001441,24.7842334 163.3,25.3157339 C165.073421,26.0477786 166.903267,26.6348542 168.77156,27.0711927 C170.758257,27.5466972 172.184771,28.0471713 173.051101,28.5726147 C173.917431,29.0980581 174.351682,29.9329052 174.353853,31.077156 C174.353853,31.821896 173.936972,32.4852141 173.103211,33.0671101 C172.149118,33.6808317 171.028611,33.984563 169.895183,33.9366972 C168.290627,33.9366972 167.022615,33.6500917 166.091147,33.0768807 C165.086308,32.424085 164.26285,31.5278044 163.697339,30.4713761 C163.424492,29.9507718 163.070488,29.4769342 162.648624,29.0676606 C162.20559,28.7070075 161.642277,28.5277715 161.072294,28.5661009 C160.350733,28.5415828 159.651346,28.8175633 159.140963,29.328211 C158.644303,29.8090842 158.368492,30.4738588 158.378853,31.1650917 C158.413652,32.3431279 158.832207,33.4775738 159.570872,34.3959174 C160.36555,35.4685168 161.597737,36.3619878 163.267431,37.0763303 C164.937125,37.7906728 166.940107,38.1489297 169.276376,38.1511009 C171.721208,38.1511009 173.799098,37.8254128 175.510046,37.1740367 C178.733316,36.1166878 180.855543,33.0392582 180.698257,29.6506422 C180.717771,28.5132757 180.375645,27.3990865 179.721193,26.4686697 C178.953403,25.4440735 177.957667,24.6122498 176.812798,24.0390367 Z" id="路径" fill="#5258DD"></path>
                <path d="M149.29867,38.4572477 C147.955666,38.4027237 146.899434,37.2902164 146.914633,35.9461927 L146.914633,22.4724771 C146.913641,21.6077831 146.397659,20.8267999 145.60266,20.4866932 C144.80766,20.1465865 143.886485,20.3127429 143.260413,20.9091743 L138.827798,25.1431193 C137.886634,26.0455594 136.401347,26.0455594 135.460183,25.1431193 L131.138303,20.9743119 C130.513578,20.3741767 129.591006,20.2047575 128.793817,20.5437754 C127.996629,20.8827933 127.478675,21.6648206 127.477569,22.5311009 L127.477569,35.9461927 C127.492768,37.2902164 126.436535,38.4027237 125.093532,38.4572477 C124.44103,38.4703888 123.810744,38.2201179 123.344992,37.7629452 C122.879239,37.3057724 122.617294,36.6802488 122.618303,36.0276147 L122.618303,14.1316055 C122.604207,13.2787114 123.025171,12.4772849 123.735413,12.0048624 C124.683426,11.3977792 125.924124,11.5203671 126.735,12.3012385 L135.743532,18.977844 C136.583869,19.597859 137.730167,19.597859 138.570505,18.977844 L147.608349,12.343578 C148.215188,11.749031 149.082597,11.5036536 149.910963,11.6922018 C151.003703,11.9530832 151.774449,12.9299913 151.773899,14.0534404 L151.773899,36.0308716 C151.773899,36.682941 151.511701,37.3076199 151.046046,37.7640845 C150.58039,38.220549 149.950607,38.4703766 149.29867,38.4572477 L149.29867,38.4572477 Z" id="路径" fill="#5258DD"></path>
                <path d="M281.524771,38.4572477 C280.181003,38.4044091 279.123812,37.2908921 279.140734,35.9461927 L279.140734,22.4724771 C279.139742,21.6077831 278.62376,20.8267999 277.828761,20.4866932 C277.033761,20.1465865 276.112586,20.3127429 275.486514,20.9091743 L271.050642,25.1431193 C270.110575,26.0451514 268.626351,26.0451514 267.686284,25.1431193 L263.361147,20.9743119 C262.736422,20.3741767 261.81385,20.2047575 261.016661,20.5437754 C260.219473,20.8827933 259.701519,21.6648206 259.700413,22.5311009 L259.700413,35.9461927 C259.717335,37.2908921 258.660144,38.4044091 257.316376,38.4572477 C256.664134,38.4694903 256.034368,38.2189268 255.568814,37.7619485 C255.10326,37.3049702 254.84081,36.6799719 254.841147,36.0276147 L254.841147,14.1316055 C254.82716,13.2779403 255.249566,12.4761054 255.961514,12.0048624 C256.908515,11.3982917 258.148027,11.5208957 258.957844,12.3012385 L267.966376,18.977844 C268.807736,19.598407 269.955245,19.598407 270.796606,18.977844 L279.831193,12.343578 C280.439358,11.7490136 281.307699,11.5037194 282.137064,11.6922018 C283.229126,11.9541432 283.999362,12.9304038 284,14.0534404 L284,36.0308716 C283.999241,36.6826638 283.736629,37.3068186 283.271171,37.7630894 C282.805714,38.2193602 282.176449,38.4694802 281.524771,38.4572477 Z" id="路径" fill="#5258DD"></path>
                <path d="M199.936651,38.4572477 L194.285963,38.4572477 C190.401988,38.4572477 187.252899,35.3096175 187.251101,31.4256422 L187.251101,18.2841284 C187.252899,14.4127443 190.391781,11.2753207 194.263165,11.2753211 L199.757523,11.2753211 C203.22261,11.2518506 206.570176,12.5304349 209.137339,14.8578899 C213.260912,18.64899 214.636215,24.5816513 212.601297,29.8004057 C210.566379,35.01916 205.538105,38.4549128 199.936651,38.4539908 L199.936651,38.4572477 Z M195.05133,33.9269671 L199.773807,33.9269671 C204.493028,33.9269671 208.713945,30.0805505 208.967982,25.367844 C209.102953,22.8821586 208.2104,20.4502476 206.499492,18.6420316 C204.788585,16.8338155 202.409713,15.8082374 199.920367,15.8056422 L195.321651,15.8056422 C194.378704,15.8056422 193.474426,16.1804488 192.807967,16.8475183 C192.141509,17.5145878 191.76753,18.4192095 191.768393,19.362156 L191.768393,30.6407339 C191.767517,31.5148158 192.115248,32.3531595 192.734539,32.9700051 C193.35383,33.5868507 194.193543,33.9312628 195.067615,33.9269671 L195.05133,33.9269671 Z" id="形状" fill="#5258DD"></path>
                <circle id="椭圆形" fill="url(#linearGradient-2)" transform="translate(234.345876, 23.441632) rotate(-17.170000) translate(-234.345876, -23.441632) " cx="234.345876" cy="23.4416315" r="3.1266055"></circle>
                <path d="M234.306514,26.569633 C236.033094,26.5910804 237.450174,25.2088454 237.471711,23.4822668 C237.493249,21.7556882 236.111087,20.3385357 234.38451,20.3169085 C232.657932,20.2952813 231.240708,21.6773686 231.218991,23.403945 C231.199075,25.1300539 232.580446,26.5463963 234.306514,26.569633 Z" id="路径" fill="#5BC9F4"></path>
                <path d="M238.576284,32.0183945 C238.581882,31.6812324 238.566655,31.3440464 238.530688,31.0087615 C238.149633,27.6672018 234.869954,28.0482569 233.99711,28.0775688 C233.99711,28.0775688 230.365688,27.553211 229.994404,30.9761927 C229.957849,31.3201892 229.940452,31.6659523 229.942294,32.0118807 L229.942294,32.0118807 C229.940593,32.0368212 229.940593,32.0618485 229.942294,32.086789 C229.942294,32.1616972 229.942294,32.2333486 229.942294,32.3082569 C229.942294,32.3831651 229.942294,32.4027064 229.942294,32.4515596 L229.942294,32.6730275 C229.942294,32.7218807 229.942294,32.7739908 229.942294,32.822844 C229.942294,32.8716972 229.942294,32.9791743 229.958578,33.0573394 C229.974862,33.1355046 229.958578,33.151789 229.958578,33.2006422 C229.958578,33.3244037 229.981376,33.4449083 229.994404,33.5686697 C229.994404,33.6305505 229.994404,33.6924312 230.017202,33.7543119 C230.04,33.8161927 230.017202,33.8845872 230.04,33.9529817 L230.069312,34.1646789 C230.069312,34.2233028 230.069312,34.2819266 230.095367,34.3405505 C230.121422,34.3991743 230.118165,34.4871101 230.127936,34.5587615 L230.157248,34.7313761 C230.157248,34.8062844 230.18656,34.8811927 230.199587,34.9593578 C230.212615,35.0375229 230.219128,35.0668349 230.232156,35.1222018 C230.245183,35.1775688 230.261468,35.2785321 230.277752,35.3534404 C230.294037,35.4283486 230.30055,35.4576606 230.310321,35.5097706 C230.320092,35.5618807 230.346147,35.6693578 230.365688,35.7507798 L230.395,35.8777982 C230.434083,36.0406422 230.473165,36.2034862 230.518761,36.3663303 C230.518761,36.4086697 230.54156,36.4510092 230.55133,36.4933486 L230.55133,36.4933486 C230.701147,37.0242202 230.877018,37.5453211 231.062661,38.0338532 C231.177135,38.327949 231.438432,38.539711 231.749862,38.5907798 C232.619957,38.7201821 233.498502,38.7844128 234.378165,38.7829784 C235.10134,38.7845955 235.823814,38.7378088 236.540734,38.6428899 C236.850205,38.6001666 237.114036,38.3970295 237.23445,38.1087615 C237.454859,37.5763674 237.647278,37.0328118 237.810917,36.4803211 L237.810917,36.4803211 C237.836972,36.3891284 238.074725,35.5032569 238.104037,35.363211 C238.133349,35.2231651 238.146376,35.1840826 238.162661,35.0961468 L238.191972,34.9658716 L238.240826,34.7150917 L238.270138,34.5685321 C238.270138,34.4871101 238.29945,34.408945 238.312477,34.3275229 C238.325505,34.2461009 238.332018,34.2200459 238.338532,34.1679358 C238.345046,34.1158257 238.364587,34.0181193 238.374358,33.943211 C238.384128,33.8683028 238.393899,33.8194495 238.400413,33.7575688 C238.406927,33.6956881 238.419954,33.6272936 238.426468,33.562156 C238.426468,33.4383945 238.45578,33.3178899 238.468807,33.1973853 C238.468807,33.1550459 238.468807,33.1127064 238.468807,33.070367 L238.488349,32.8195872 L238.488349,32.6827982 C238.488349,32.604633 238.488349,32.5264679 238.488349,32.4483028 C238.488349,32.3701376 238.488349,32.360367 238.488349,32.3180275 C238.488349,32.2756881 238.488349,32.1616972 238.488349,32.0835321 L238.488349,32.0183945 L238.576284,32.0183945 Z" id="路径" fill="#5BC9F4"></path>
                <path d="M244.204174,14.5126606 C241.47799,12.1977445 238.009834,10.9411158 234.433532,10.9724312 C230.706968,10.9377419 227.109688,12.3370083 224.386055,14.8806881 C221.50263,17.4861927 220.062003,20.8016972 220.064172,24.8272018 C220.064172,29.2695872 221.470061,32.7055963 224.281835,35.1352294 C225.900394,36.5488901 227.81258,37.5856308 229.880413,38.1706422 C229.975343,38.1951398 230.076095,38.1663187 230.143709,38.0953245 C230.211322,38.0243302 230.235197,37.9222923 230.206101,37.8286697 C230.170275,37.7016514 230.131193,37.574633 230.095367,37.4476147 L230.095367,37.4476147 L230.056284,37.2977982 C230.007431,37.1154128 229.961835,36.9297706 229.916239,36.7473853 C229.916239,36.6985321 229.89344,36.6496789 229.880413,36.6008257 L229.821789,36.3272477 L229.782706,36.1513761 C229.763165,36.0634404 229.746881,35.9755046 229.730596,35.8875688 C229.714312,35.799633 229.704541,35.7605505 229.694771,35.6986697 C229.685,35.636789 229.662202,35.5293119 229.649174,35.4413761 C229.636147,35.3534404 229.626376,35.3111009 229.613349,35.2459633 L229.574266,34.9984404 L229.544954,34.7932569 C229.544954,34.7150917 229.522156,34.6336697 229.512385,34.5555046 C229.502615,34.4773394 229.492844,34.4056881 229.48633,34.3307798 C229.479817,34.2558716 229.466789,34.1874771 229.460275,34.1158257 C229.460275,33.9757798 229.430963,33.8389908 229.421193,33.698945 C229.421193,33.643578 229.421193,33.5914679 229.421193,33.5361009 L229.401651,33.2690367 L229.401651,33.096422 L229.401651,32.8456422 C229.401651,32.7902752 229.401651,32.7381651 229.401651,32.6827982 C229.401651,32.6274312 229.401651,32.5134404 229.401651,32.4320183 L229.401651,32.3473394 L229.401651,32.3473394 L229.401651,32.2691743 C229.403217,31.8955375 229.226607,31.543527 228.926147,31.321422 C228.756789,31.1954893 228.590688,31.0619572 228.427844,30.9208257 C226.773349,29.4877982 225.945015,27.463104 225.942844,24.8467431 C225.881435,22.6118101 226.814233,20.4647042 228.489725,18.9843578 C230.094233,17.4870288 232.212941,16.6637994 234.407477,16.685 C236.517145,16.6641277 238.563696,17.4041233 240.172156,18.7694037 C241.850535,20.1590061 242.688639,22.1826147 242.686468,24.8402294 C242.686468,27.4175076 241.868991,29.4313456 240.234037,30.8817431 C240.058165,31.0380734 239.879037,31.184633 239.696651,31.3246789 C239.403667,31.544737 239.231173,31.8897243 239.230917,32.2561468 L239.230917,32.360367 L239.230917,32.360367 C239.230917,32.386422 239.230917,32.4092202 239.230917,32.4352752 C239.230917,32.523211 239.230917,32.6111468 239.230917,32.7023394 C239.230917,32.7935321 239.230917,32.8000459 239.230917,32.8488991 C239.230917,32.8977523 239.230917,33.0280275 239.230917,33.1192202 L239.230917,33.2722936 C239.230917,33.3667431 239.230917,33.4644495 239.204862,33.5588991 C239.178807,33.6533486 239.204862,33.6566055 239.204862,33.7022018 C239.204862,33.8389908 239.17555,33.9790367 239.156009,34.1190826 L239.126697,34.3438073 L239.097385,34.5522477 L239.058303,34.8062844 C239.058303,34.8681651 239.035505,34.9300459 239.025734,34.9919266 L238.976881,35.2622477 C238.976881,35.3176147 238.957339,35.3729817 238.944312,35.4316055 C238.931284,35.4902294 238.908486,35.6205046 238.888945,35.7149541 C238.869404,35.8094037 238.866147,35.8159174 238.856376,35.8647706 C238.833578,35.9657339 238.814037,36.0666972 238.787982,36.1709174 C238.786417,36.196949 238.786417,36.223051 238.787982,36.2490826 C238.700046,36.6073394 238.615367,36.9688532 238.504633,37.3205963 C238.504633,37.3596789 238.481835,37.4020183 238.468807,37.4411009 L238.468807,37.4411009 C238.423211,37.5909174 238.377615,37.7407339 238.328761,37.8905505 C238.298866,37.9847945 238.322147,38.0878363 238.389657,38.1600724 C238.457168,38.2323085 238.558401,38.2624976 238.65445,38.2390367 C240.79977,37.6477923 242.777919,36.5650515 244.432156,35.0766055 C247.207018,32.6122324 248.595535,29.1935933 248.597706,24.8206881 C248.515199,20.3066514 247.050688,16.8706422 244.204174,14.5126606 Z" id="路径" fill="#5258DD"></path>
                <path d="M113.531606,33.7119725 L113.531606,33.7119725 C113.330148,33.7119725 113.166835,33.5486591 113.166835,33.3472018 L113.166835,16.385367 C113.166835,16.1839097 113.330148,16.0205963 113.531606,16.0205963 L113.531606,16.0205963 C114.907448,16.0375556 116.046704,14.9560564 116.101284,13.5811927 C116.111757,12.9162481 115.854919,12.2749201 115.388362,11.8010156 C114.921805,11.3271112 114.284568,11.0601286 113.619541,11.0601286 L108.271743,11.0601286 C106.895224,11.0416787 105.754953,12.1241409 105.702064,13.4997706 C105.690698,14.1649762 105.947246,14.8068214 106.413996,15.2809223 C106.880747,15.7550231 107.518505,16.0215677 108.183807,16.0205963 L108.271743,16.0205963 C108.4732,16.0205963 108.636514,16.1839097 108.636514,16.385367 L108.636514,33.3472018 C108.636514,33.5486591 108.4732,33.7119725 108.271743,33.7119725 L108.271743,33.7119725 C106.894005,33.6933345 105.753232,34.7777193 105.702064,36.154633 C105.691591,36.8195776 105.948429,37.4609056 106.414986,37.93481 C106.881543,38.4087145 107.51878,38.6754587 108.183807,38.6754587 L113.619541,38.6754587 C114.284294,38.6746566 114.921012,38.4075491 115.387377,37.9338399 C115.853742,37.4601307 116.110868,36.819317 116.101284,36.154633 C116.04842,34.7784854 114.908664,33.6950671 113.531606,33.7119725 L113.531606,33.7119725 Z" id="路径" fill="#5258DD"></path>
                <path d="M113.619541,11.0733945 L108.271743,11.0733945 C106.895224,11.0547062 105.754953,12.1371684 105.702064,13.5127982 C105.683283,14.6720464 106.470661,15.6894141 107.597569,15.9619725 L114.130872,15.9619725 C115.251491,15.7155881 116.06257,14.7409526 116.101284,13.5942202 C116.111757,12.9292757 115.854919,12.2879476 115.388362,11.8140432 C114.921805,11.3401387 114.284568,11.073312 113.619541,11.0733945 Z" id="路径" fill="#5BC9F4"></path>
            </g>
        </g>
    </g>
</svg>